#!OML:ASF I:\golf\golf\golf 2\Subject 1\2002-09-07\Subject1.ASF
:FULLY-SPECIFIED
:DEGREES
168
root -7.93659 17.3466 2.33653 -9.81597 62.3224 -23.8323
lowerback 5.10494 -7.51604 -15.4752
upperback 2.52582 -10.648 1.86405
thorax 3.06063 -5.72608 10.5317
lowerneck -5.33773 17.5895 1.53402
upperneck 21.3828 27.7949 -12.7696
head 9.80767 12.0594 -1.40697
rclavicle 1.25632e-013 3.18055e-014
rhumerus 5.16065 -8.70649 -81.7326
rradius 99.6687
rwrist -30.8517
rhand -58.8534 34.9194
rfingers 7.12502
rthumb -31.0596 7.52933
lclavicle 1.25632e-013 3.18055e-014
lhumerus 87.8306 -52.6394 45.067
lradius 29.1681
lwrist -6.04417
lhand -20.0433 2.49107
lfingers 7.12502
lthumb -173.702 -147.623
rfemur -35.9441 6.84115 28.3589
rtibia 41.545
rfoot -13.4704 12.2176
rtoes 12.2591
lfemur -7.86323 4.9776 7.82405
ltibia 21.7037
lfoot -13.2218 21.6146
ltoes -17.3083
169
root -7.92836 17.3415 2.36359 -9.99373 61.9808 -23.9495
lowerback 5.11725 -7.80739 -14.6646
upperback 2.57174 -10.9835 1.28825
thorax 2.91807 -5.84303 9.44972
lowerneck -6.0814 17.9417 1.95171
upperneck 21.9272 28.1866 -12.0225
head 10.101 12.2355 -1.07465
rclavicle -4.45278e-014 2.22639e-014
rhumerus 6.04934 -9.02868 -81.801
rradius 100.386
rwrist -29.0213
rhand -58.9595 35.087
rfingers 7.12502
rthumb -31.1608 7.71626
lclavicle -4.45278e-014 2.22639e-014
lhumerus 89.4544 -52.1371 43.5383
lradius 29.4957
lwrist -6.21641
lhand -21.051 1.76634
lfingers 7.12502
lthumb -174.675 -148.321
rfemur -35.824 7.17453 28.5907
rtibia 41.6516
rfoot -13.425 12.3299
rtoes 13.3206
lfemur -7.52723 4.93505 8.0196
ltibia 21.6336
lfoot -13.061 22.0524
ltoes -17.688
170
root -7.92071 17.3308 2.39186 -10.4041 61.6059 -24.2788
lowerback 5.17315 -8.0556 -13.7264
upperback 2.60655 -11.2652 0.718817
thorax 2.68678 -5.92738 8.341
lowerneck -6.5173 18.2277 2.40058
upperneck 22.1778 28.4341 -11.4312
head 10.2505 12.38 -0.852946
rclavicle -8.5875e-014 9.54166e-015
rhumerus 6.81424 -9.43594 -81.7679
rradius 101.123
rwrist -27.0002
rhand -59.4245 29.8309
rfingers 7.12502
rthumb -31.6038 2.54625
lclavicle -8.5875e-014 9.54166e-015
lhumerus 91.1331 -51.7105 42.0216
lradius 29.846
lwrist -5.86904
lhand -21.23 1.20419
lfingers 7.12502
lthumb -174.848 -148.878
rfemur -35.6303 7.55148 28.9501
rtibia 41.7258
rfoot -13.4301 12.3211
rtoes 13.925
lfemur -7.06278 4.94893 8.37154
ltibia 21.6043
lfoot -13.2894 22.1856
ltoes -17.4872
171
root -7.91343 17.3217 2.4157 -10.483 61.2358 -24.394
lowerback 5.17667 -8.31031 -12.9609
upperback 2.5161 -11.5686 0.251605
thorax 2.4008 -6.02459 7.44875
lowerneck -6.355 18.4778 2.7667
upperneck 21.8194 28.5948 -11.2396
head 10.1202 12.5272 -0.840853
rclavicle 6.48038e-014 1.59028e-014
rhumerus 7.54734 -9.80104 -81.522
rradius 101.946
rwrist -25.1765
rhand -59.6418 36.2027
rfingers 7.12502
rthumb -31.8108 8.95903
lclavicle 6.48038e-014 1.59028e-014
lhumerus 92.2859 -51.3379 41.236
lradius 30.4528
lwrist -5.51574
lhand -20.9363 0.848856
lfingers 7.12502
lthumb -174.564 -149.241
rfemur -35.5812 7.92493 29.1862
rtibia 41.7856
rfoot -13.5303 12.2173
rtoes 13.3296
lfemur -6.72143 4.9657 8.59137
ltibia 21.561
lfoot -13.5665 22.3385
ltoes -17.2363
172
root -7.90523 17.3219 2.43756 -10.1217 60.8218 -24.1328
lowerback 5.13736 -8.53655 -12.5885
upperback 2.33705 -11.8558 -0.0489828
thorax 2.15006 -6.12807 6.94311
lowerneck -6.19866 18.7194 2.88144
upperneck 21.5293 28.7858 -11.0156
head 9.97809 12.6709 -0.788345
rclavicle -7.87187e-014 1.27222e-014
rhumerus 8.35494 -10.0848 -80.9802
rradius 102.748
rwrist -23.7339
rhand -59.4186 37.2126
rfingers 7.12502
rthumb -31.5982 9.92688
lclavicle -7.87187e-014 1.27222e-014
lhumerus 93.3285 -50.8536 40.7521
lradius 31.0932
lwrist -5.15414
lhand -20.7938 0.589325
lfingers 7.12502
lthumb -174.427 -149.504
rfemur -35.6403 8.38835 29.2119
rtibia 41.829
rfoot -13.5842 12.1683
rtoes 13.2289
lfemur -6.58169 5.27168 8.56088
ltibia 21.5398
lfoot -12.4653 22.9856
ltoes -21.2796
173
root -7.89601 17.3176 2.45871 -9.70318 60.2757 -23.7753
lowerback 5.11648 -8.69262 -12.396
upperback 2.15141 -12.0632 -0.242027
thorax 1.92307 -6.2011 6.65238
lowerneck -6.15775 18.906 2.86778
upperneck 21.3404 28.942 -10.7928
head 9.87289 12.777 -0.713505
rclavicle 5.76476e-014 -1.27222e-014
rhumerus 9.20729 -10.3318 -80.2452
rradius 103.467
rwrist -22.386
rhand -59.1108 37.372
rfingers 7.12502
rthumb -31.3049 10.0291
lclavicle 5.76476e-014 -1.27222e-014
lhumerus 94.4778 -50.2585 40.228
lradius 31.5673
lwrist -4.7942
lhand -20.9674 0.375156
lfingers 7.12502
lthumb -174.594 -149.714
rfemur -35.6663 8.92708 29.2217
rtibia 41.8687
rfoot -13.6132 12.1987
rtoes 13.5293
lfemur -6.32721 5.36124 8.49841
ltibia 21.5849
lfoot -11.8676 23.6719
ltoes -23.5877
174
root -7.89091 17.3083 2.47491 -9.39982 59.7394 -23.5753
lowerback 5.10209 -8.82023 -12.3548
upperback 2.0066 -12.2417 -0.225809
thorax 1.80813 -6.27743 6.65082
lowerneck -6.08522 19.0564 2.71766
upperneck 20.8832 29.0913 -10.9
head 9.70357 12.862 -0.736138
rclavicle 6.2816e-014 -3.18055e-014
rhumerus 10.269 -10.5266 -79.2614
rradius 104.028
rwrist -20.8891
rhand -58.9895 38.7787
rfingers 7.12502
rthumb -31.1894 11.4135
lclavicle 6.2816e-014 -3.18055e-014
lhumerus 95.2926 -49.6209 40.3603
lradius 32.0191
lwrist -4.81385
lhand -21.3759 0.31524
lfingers 7.12502
lthumb -174.989 -149.764
rfemur -35.7637 9.42382 29.2922
rtibia 41.9413
rfoot -13.5831 12.2962
rtoes 13.9036
lfemur -6.01883 5.02081 8.51981
ltibia 21.539
lfoot -12.4314 24.2677
ltoes -22.1654
175
root -7.8872 17.304 2.49028 -9.04712 59.344 -23.3616
lowerback 5.14227 -8.99516 -12.3525
upperback 1.80657 -12.4967 -0.189033
thorax 1.633 -6.38702 6.70151
lowerneck -5.93121 19.2273 2.63211
upperneck 20.4224 29.2911 -11.1137
head 9.55218 12.9694 -0.796338
rclavicle 1.87255e-013 9.54166e-015
rhumerus 11.3037 -10.6879 -78.2438
rradius 104.522
rwrist -19.3548
rhand -58.9425 39.5315
rfingers 7.12502
rthumb -31.1446 12.1577
lclavicle 1.87255e-013 9.54166e-015
lhumerus 95.9276 -49.0536 40.7027
lradius 32.4389
lwrist -4.96393
lhand -22.036 0.189115
lfingers 7.12502
lthumb -175.626 -149.876
rfemur -35.9429 9.66612 29.3389
rtibia 42.0534
rfoot -13.5464 12.5375
rtoes 14.0635
lfemur -5.80453 4.75735 8.47749
ltibia 21.3428
lfoot -12.5134 24.9013
ltoes -22.069
176
root -7.87854 17.2932 2.5072 -8.66712 59.0372 -23.0215
lowerback 5.18999 -9.236 -12.4151
upperback 1.61416 -12.841 -0.199591
thorax 1.48382 -6.54171 6.73148
lowerneck -5.5383 19.4588 2.68081
upperneck 19.7514 29.5702 -11.554
head 9.352 13.13 -0.955614
rclavicle -3.49861e-014 0
rhumerus 12.3062 -10.762 -77.2982
rradius 104.991
rwrist -17.9711
rhand -58.8503 39.8093
rfingers 7.12502
rthumb -31.0567 12.4187
lclavicle -3.49861e-014 0
lhumerus 96.5447 -48.3926 40.9143
lradius 32.7833
lwrist -4.912
lhand -22.5791 -0.0746576
lfingers 7.12502
lthumb -176.15 -150.13
rfemur -36.0409 9.70289 29.3235
rtibia 42.1919
rfoot -13.5669 12.8765
rtoes 14.3982
lfemur -5.41877 4.27193 8.36114
ltibia 21.1056
lfoot -14.2326 25.0244
ltoes -17.0419
177
root -7.86987 17.2845 2.52349 -8.32576 58.6979 -22.6435
lowerback 5.27077 -9.41488 -12.5287
upperback 1.46911 -13.1059 -0.219597
thorax 1.36006 -6.66033 6.78317
lowerneck -5.12363 19.6505 2.76984
upperneck 19.0732 29.7846 -12.0016
head 9.15035 13.2668 -1.13188
rclavicle -3.73715e-014 -4.13472e-014
rhumerus 13.2885 -11.0027 -76.3315
rradius 105.39
rwrist -16.6801
rhand -58.7774 40.6176
rfingers 7.12502
rthumb -30.9871 13.2137
lclavicle -3.73715e-014 -4.13472e-014
lhumerus 97.2516 -47.816 41.1412
lradius 33.1441
lwrist -4.50428
lhand -22.7018 -0.226673
lfingers 7.12502
lthumb -176.269 -150.28
rfemur -36.0432 9.883 29.2699
rtibia 42.3338
rfoot -13.6193 13.1001
rtoes 15.2388
lfemur -4.92508 3.94752 8.22719
ltibia 20.8227
lfoot -16.0594 24.8293
ltoes -10.8813
178
root -7.86173 17.2923 2.53899 -7.41564 58.3477 -21.7138
lowerback 5.24849 -9.51939 -12.8791
upperback 1.30142 -13.2672 -0.349411
thorax 1.27486 -6.72604 6.83012
lowerneck -5.23512 19.7353 2.68437
upperneck 19.1905 29.8753 -11.7531
head 9.16182 13.3093 -1.02586
rclavicle 1.82882e-014 8.90555e-014
rhumerus 14.1786 -11.3989 -75.3454
rradius 106.171
rwrist -15.5029
rhand -59.0938 38.5314
rfingers 7.12502
rthumb -31.2887 11.1853
lclavicle 1.82882e-014 8.90555e-014
lhumerus 98.1107 -47.4441 41.2799
lradius 33.526
lwrist -4.0545
lhand -23.0429 -0.464552
lfingers 7.12502
lthumb -176.598 -150.512
rfemur -36.142 10.1622 28.8763
rtibia 42.4763
rfoot -13.6757 13.2736
rtoes 15.6471
lfemur -4.62214 4.20436 7.68443
ltibia 20.4598
lfoot -14.4246 25.8384
ltoes -16.1783
179
root -7.85287 17.3009 2.55142 -6.04663 58.0132 -20.3945
lowerback 5.12438 -9.63961 -13.3917
upperback 1.09327 -13.4439 -0.502553
thorax 1.23767 -6.79933 6.91547
lowerneck -5.42181 19.8117 2.41809
upperneck 19.1219 29.9325 -11.5199
head 9.09372 13.3357 -0.913795
rclavicle -5.12864e-014 -2.8625e-014
rhumerus 15.1453 -11.8099 -74.3253
rradius 106.739
rwrist -14.2599
rhand -59.2776 38.1133
rfingers 7.12502
rthumb -31.4638 10.8013
lclavicle -5.12864e-014 -2.8625e-014
lhumerus 98.9142 -47.0371 41.4107
lradius 34.0127
lwrist -3.64828
lhand -23.5814 -0.708803
lfingers 7.12502
lthumb -177.118 -150.749
rfemur -36.397 10.3936 28.2146
rtibia 42.592
rfoot -13.6647 13.537
rtoes 15.7316
lfemur -4.49169 4.2269 6.85177
ltibia 20.1824
lfoot -13.3324 26.8546
ltoes -19.7281
180
root -7.84693 17.2978 2.56139 -5.25417 57.6678 -19.74
lowerback 5.0006 -9.70457 -13.5312
upperback 0.966335 -13.5263 -0.567028
thorax 1.20385 -6.83042 6.90357
lowerneck -5.54606 19.8276 2.19689
upperneck 18.6636 29.8962 -11.6229
head 8.93683 13.3252 -0.935405
rclavicle 9.30312e-014 -1.27222e-014
rhumerus 16.2852 -12.4131 -73.2413
rradius 107.277
rwrist -13.014
rhand -59.3487 37.8042
rfingers 7.12502
rthumb -31.5316 10.5054
lclavicle 9.30312e-014 -1.27222e-014
lhumerus 99.8564 -46.708 41.6111
lradius 34.6349
lwrist -2.9266
lhand -23.5582 -0.748229
lfingers 7.12502
lthumb -177.096 -150.788
rfemur -36.6579 10.5715 27.9287
rtibia 42.6768
rfoot -13.6487 13.7995
rtoes 15.8713
lfemur -4.34684 3.79875 6.46666
ltibia 19.9853
lfoot -15.1424 27.0658
ltoes -14.3432
181
root -7.84015 17.2954 2.57192 -4.98471 57.3198 -19.5954
lowerback 4.86903 -9.77947 -13.3642
upperback 0.910684 -13.6022 -0.63339
thorax 1.17815 -6.86106 6.72991
lowerneck -5.93515 19.8458 2.13037
upperneck 18.7488 29.9343 -11.5382
head 9.01149 13.3149 -0.852781
rclavicle 1.47101e-014 1.27222e-014
rhumerus 17.591 -13.1106 -72.3692
rradius 107.903
rwrist -11.8517
rhand -59.2366 36.5388
rfingers 7.12502
rthumb -31.4248 9.21919
lclavicle 1.47101e-014 1.27222e-014
lhumerus 100.682 -46.508 41.9663
lradius 35.6497
lwrist -1.25764
lhand -22.1102 0.64366
lfingers 7.12502
lthumb -175.698 -149.42
rfemur -36.7954 10.7441 27.9508
rtibia 42.7373
rfoot -13.6625 14.0115
rtoes 15.9625
lfemur -4.03818 3.41508 6.40676
ltibia 19.742
lfoot -17.0205 26.8711
ltoes -8.33323
182
root -7.83136 17.2937 2.58212 -4.85095 56.9883 -19.5243
lowerback 4.85869 -9.9358 -13.1449
upperback 0.801182 -13.8066 -0.735938
thorax 1.03293 -6.94484 6.51678
lowerneck -6.0844 19.9436 2.19596
upperneck 18.6918 30.0512 -11.5203
head 9.03233 13.3667 -0.822233
rclavicle 7.2954e-014 -9.22361e-014
rhumerus 18.1542 -13.484 -71.3722
rradius 108.239
rwrist -10.7057
rhand -59.5072 36.8423
rfingers 7.12502
rthumb -31.6826 9.57321
lclavicle 7.2954e-014 -9.22361e-014
lhumerus 101.158 -46.2854 42.3294
lradius 36.1454
lwrist -0.863068
lhand -22.2325 0.796336
lfingers 7.12502
lthumb -175.816 -149.265
rfemur -36.82 11.0326 27.9747
rtibia 42.7575
rfoot -13.6307 14.1208
rtoes 16.2882
lfemur -3.63666 3.07576 6.36787
ltibia 19.5192
lfoot -17.7421 27.0477
ltoes -6.8755
